<mxfile host="app.diagrams.net" agent="Mozilla/5.0 (Windows NT 10.0; Win64; x64) AppleWebKit/537.36 (KHTML, like Gecko) Chrome/128.0.0.0 Safari/537.36" version="24.7.10">
  <diagram name="Página-1" id="PaRbv0ixqFUKwAqJN0qa">
    <mxGraphModel dx="874" dy="468" grid="1" gridSize="10" guides="1" tooltips="1" connect="1" arrows="1" fold="1" page="1" pageScale="1" pageWidth="827" pageHeight="1169" math="0" shadow="0">
      <root>
        <mxCell id="0" />
        <mxCell id="1" parent="0" />
        <mxCell id="uo1feU5XVfQHmGi2C8kp-1" style="edgeStyle=orthogonalEdgeStyle;rounded=0;orthogonalLoop=1;jettySize=auto;html=1;entryX=0;entryY=0.5;entryDx=0;entryDy=0;" edge="1" parent="1" source="uo1feU5XVfQHmGi2C8kp-2" target="uo1feU5XVfQHmGi2C8kp-5">
          <mxGeometry relative="1" as="geometry" />
        </mxCell>
        <mxCell id="uo1feU5XVfQHmGi2C8kp-2" value="&lt;b&gt;PROCESO:&lt;/b&gt;&lt;div&gt;&lt;br&gt;&lt;/div&gt;&lt;div&gt;Gestión de pedidos&lt;/div&gt;" style="shape=step;perimeter=stepPerimeter;whiteSpace=wrap;html=1;fixedSize=1;" vertex="1" parent="1">
          <mxGeometry x="340" y="210" width="140" height="80" as="geometry" />
        </mxCell>
        <mxCell id="uo1feU5XVfQHmGi2C8kp-3" style="edgeStyle=orthogonalEdgeStyle;rounded=0;orthogonalLoop=1;jettySize=auto;html=1;entryX=0;entryY=0.5;entryDx=0;entryDy=0;" edge="1" parent="1" source="uo1feU5XVfQHmGi2C8kp-4" target="uo1feU5XVfQHmGi2C8kp-2">
          <mxGeometry relative="1" as="geometry" />
        </mxCell>
        <mxCell id="uo1feU5XVfQHmGi2C8kp-4" value="&lt;b&gt;ENTRADA:&lt;/b&gt;&lt;div&gt;&lt;br&gt;&lt;/div&gt;&lt;div&gt;Solicitud de cotización&lt;/div&gt;" style="rounded=0;whiteSpace=wrap;html=1;" vertex="1" parent="1">
          <mxGeometry x="120" y="220" width="130" height="60" as="geometry" />
        </mxCell>
        <mxCell id="uo1feU5XVfQHmGi2C8kp-5" value="&lt;b&gt;SALIDA:&lt;/b&gt;&lt;div&gt;&lt;br&gt;&lt;/div&gt;&lt;div&gt;Entrega de pedido&lt;/div&gt;&lt;div&gt;Cobranza&lt;/div&gt;" style="rounded=0;whiteSpace=wrap;html=1;" vertex="1" parent="1">
          <mxGeometry x="570" y="215" width="130" height="70" as="geometry" />
        </mxCell>
        <mxCell id="uo1feU5XVfQHmGi2C8kp-6" style="edgeStyle=orthogonalEdgeStyle;rounded=0;orthogonalLoop=1;jettySize=auto;html=1;entryX=0.5;entryY=0;entryDx=0;entryDy=0;" edge="1" parent="1" source="uo1feU5XVfQHmGi2C8kp-7" target="uo1feU5XVfQHmGi2C8kp-2">
          <mxGeometry relative="1" as="geometry" />
        </mxCell>
        <mxCell id="uo1feU5XVfQHmGi2C8kp-7" value="&lt;b&gt;OBJETIVO:&lt;/b&gt;&lt;div&gt;&lt;br&gt;&lt;/div&gt;&lt;div&gt;Entregar material de construcción&lt;/div&gt;" style="rounded=0;whiteSpace=wrap;html=1;" vertex="1" parent="1">
          <mxGeometry x="345" y="80" width="130" height="70" as="geometry" />
        </mxCell>
        <mxCell id="uo1feU5XVfQHmGi2C8kp-8" value="&lt;b&gt;RECURSOS HUMANOS:&lt;/b&gt;&lt;div&gt;&lt;br&gt;&lt;/div&gt;&lt;div&gt;Producción&lt;/div&gt;&lt;div&gt;Transporte&lt;/div&gt;&lt;div&gt;Atención al cliente&lt;/div&gt;&lt;div&gt;Mantenimiento&lt;/div&gt;" style="rounded=0;whiteSpace=wrap;html=1;" vertex="1" parent="1">
          <mxGeometry x="140" y="315" width="150" height="90" as="geometry" />
        </mxCell>
        <mxCell id="uo1feU5XVfQHmGi2C8kp-9" style="edgeStyle=orthogonalEdgeStyle;rounded=0;orthogonalLoop=1;jettySize=auto;html=1;entryX=0.75;entryY=1;entryDx=0;entryDy=0;" edge="1" parent="1" source="uo1feU5XVfQHmGi2C8kp-10" target="uo1feU5XVfQHmGi2C8kp-2">
          <mxGeometry relative="1" as="geometry" />
        </mxCell>
        <mxCell id="uo1feU5XVfQHmGi2C8kp-10" value="&lt;b&gt;HERRAMIENTAS:&lt;/b&gt;&lt;div&gt;&lt;br&gt;&lt;/div&gt;&lt;div&gt;Bases de datos&lt;/div&gt;&lt;div&gt;Maquinaria&lt;/div&gt;&lt;div&gt;Insumos&lt;/div&gt;" style="rounded=0;whiteSpace=wrap;html=1;" vertex="1" parent="1">
          <mxGeometry x="550" y="320" width="130" height="80" as="geometry" />
        </mxCell>
        <mxCell id="uo1feU5XVfQHmGi2C8kp-11" value="&lt;b&gt;INFORMACIÓN:&lt;/b&gt;&lt;div&gt;&lt;br&gt;&lt;/div&gt;&lt;div&gt;Descripción de materiales&lt;/div&gt;&lt;div&gt;Stock disponible&lt;/div&gt;&lt;div&gt;Datos del cliente&lt;/div&gt;" style="rounded=0;whiteSpace=wrap;html=1;" vertex="1" parent="1">
          <mxGeometry x="450" y="440" width="120" height="90" as="geometry" />
        </mxCell>
        <mxCell id="uo1feU5XVfQHmGi2C8kp-12" style="edgeStyle=orthogonalEdgeStyle;rounded=0;orthogonalLoop=1;jettySize=auto;html=1;entryX=0.407;entryY=1.038;entryDx=0;entryDy=0;entryPerimeter=0;" edge="1" parent="1">
          <mxGeometry relative="1" as="geometry">
            <mxPoint x="386.98" y="289.99999999999994" as="targetPoint" />
            <mxPoint x="370" y="451.96" as="sourcePoint" />
            <Array as="points">
              <mxPoint x="387" y="451.96" />
            </Array>
          </mxGeometry>
        </mxCell>
        <mxCell id="uo1feU5XVfQHmGi2C8kp-13" value="&lt;b&gt;INFRAESTRUCTURA:&lt;/b&gt;&lt;div&gt;&lt;br&gt;&lt;/div&gt;&lt;div&gt;Ubicación física&lt;/div&gt;&lt;div&gt;Electricidad&lt;/div&gt;&lt;div&gt;Internet&lt;/div&gt;" style="rounded=0;whiteSpace=wrap;html=1;" vertex="1" parent="1">
          <mxGeometry x="240" y="440" width="140" height="80" as="geometry" />
        </mxCell>
        <mxCell id="uo1feU5XVfQHmGi2C8kp-14" style="edgeStyle=orthogonalEdgeStyle;rounded=0;orthogonalLoop=1;jettySize=auto;html=1;entryX=0.136;entryY=1.013;entryDx=0;entryDy=0;entryPerimeter=0;" edge="1" parent="1" source="uo1feU5XVfQHmGi2C8kp-8" target="uo1feU5XVfQHmGi2C8kp-2">
          <mxGeometry relative="1" as="geometry" />
        </mxCell>
        <mxCell id="uo1feU5XVfQHmGi2C8kp-15" style="edgeStyle=orthogonalEdgeStyle;rounded=0;orthogonalLoop=1;jettySize=auto;html=1;entryX=0.571;entryY=1;entryDx=0;entryDy=0;entryPerimeter=0;" edge="1" parent="1" source="uo1feU5XVfQHmGi2C8kp-11" target="uo1feU5XVfQHmGi2C8kp-2">
          <mxGeometry relative="1" as="geometry">
            <Array as="points">
              <mxPoint x="420" y="450" />
            </Array>
          </mxGeometry>
        </mxCell>
      </root>
    </mxGraphModel>
  </diagram>
</mxfile>
